<?xml version="1.0" encoding="UTF-8"?>
<!DOCTYPE svg PUBLIC "-//W3C//DTD SVG 1.1//EN" "http://www.w3.org/Graphics/SVG/1.1/DTD/svg11.dtd">
<!-- Creator: CorelDRAW -->
<svg xmlns="http://www.w3.org/2000/svg" xml:space="preserve" width="185px" height="35px" style="shape-rendering:geometricPrecision; text-rendering:geometricPrecision; image-rendering:optimizeQuality; fill-rule:evenodd; clip-rule:evenodd"
viewBox="0 0 47.0048 8.91302"
 xmlns:xlink="http://www.w3.org/1999/xlink">
 <defs>
  <style type="text/css">
   <![CDATA[
    .fil0 {fill:#222222}
    .fil1 {fill:#D2322D;fill-rule:nonzero}
    .fil2 {fill:white;fill-rule:nonzero}
   ]]>
  </style>
 </defs>
 <g id="Layer_x0020_1">
  <metadata id="CorelCorpID_0Corel-Layer"/>
  <g id="_523897944">
   <rect id="_523895376" class="fil0" x="7.73514e-005" y="0.538863" width="47.005" height="7.83402" rx="1.2955" ry="1.2955"/>
   <path id="_523895496" class="fil1" d="M4.48418 4.51126c0,-0.146184 0,-0.334178 0,-0.563982 0,-0.234917 -0.00541423,-0.481566 -0.0156411,-0.739945 -0.0105277,-0.25868 -0.0327862,-0.518262 -0.0667755,-0.779348 -0.0336885,-0.261086 -0.083319,-0.496004 -0.148591,-0.705053 -0.0652715,-0.208749 -0.152802,-0.378394 -0.26259,-0.508938 -0.109488,-0.130543 -0.245445,-0.195815 -0.40727,-0.195815 -0.161825,0 -0.297482,0.0652715 -0.40727,0.195815 -0.109488,0.130543 -0.197018,0.300189 -0.262289,0.508938 -0.0652715,0.209049 -0.114902,0.443967 -0.148891,0.705053 -0.0339893,0.261086 -0.055947,0.520668 -0.0664747,0.779348 -0.0105277,0.258379 -0.0156411,0.505027 -0.0156411,0.739945 0,0.229804 0,0.417798 0,0.563982 0,0.146184 0,0.336885 0,0.571803 0,0.229804 0.00661739,0.473745 0.0195514,0.732425 0.012934,0.258379 0.0363957,0.518262 0.070385,0.779348 0.0339893,0.261086 0.0848229,0.496004 0.152802,0.704752 0.0679787,0.209049 0.156712,0.378695 0.2662,0.509238 0.109789,0.130543 0.245445,0.195815 0.40727,0.195815 0.162126,0 0.296579,-0.0652715 0.40336,-0.195815 0.107081,-0.130543 0.193408,-0.300189 0.25868,-0.509238 0.0652715,-0.208749 0.113398,-0.443666 0.14468,-0.704752 0.031583,-0.261086 0.0535407,-0.520969 0.0667755,-0.779348 0.012934,-0.25868 0.0183482,-0.502621 0.0156411,-0.732425 -0.00270711,-0.229804 -0.00391028,-0.420204 -0.00391028,-0.571803zm0.994714 0c0,0.610906 -0.0261688,1.14361 -0.0785063,1.5978 -0.0520368,0.454194 -0.122723,0.84462 -0.211456,1.17098 -0.0887332,0.326358 -0.193108,0.595264 -0.313123,0.80672 -0.120015,0.211456 -0.249355,0.378695 -0.387719,0.501418 -0.138364,0.122723 -0.283345,0.207545 -0.434642,0.254469 -0.151598,0.0469233 -0.302896,0.070385 -0.454494,0.070385 -0.151298,0 -0.302595,-0.0234617 -0.454194,-0.070385 -0.151298,-0.0469233 -0.297482,-0.131746 -0.438553,-0.254469 -0.141071,-0.122723 -0.27402,-0.288759 -0.39945,-0.497508 -0.12543,-0.208749 -0.233714,-0.476452 -0.325155,-0.80281 -0.0911395,-0.326358 -0.163028,-0.717987 -0.215366,-1.17489 -0.0520368,-0.456901 -0.0782055,-0.990804 -0.0782055,-1.60171 0,-0.913802 0.0562478,-1.65766 0.168443,-2.23217 0.112195,-0.574209 0.258379,-1.02088 0.438553,-1.33942 0.180174,-0.318236 0.383809,-0.535106 0.610906,-0.650008 0.227097,-0.114902 0.452991,-0.172353 0.67738,-0.172353 0.224691,0 0.450584,0.057451 0.677681,0.172353 0.227097,0.114902 0.430732,0.331772 0.610906,0.650008 0.180174,0.318537 0.326358,0.765211 0.438553,1.33942 0.112195,0.57451 0.168443,1.31836 0.168443,2.23217z"/>
   <path id="_5238954961" class="fil1" d="M20.3292 3.78304c0,-0.224691 -0.0285751,-0.446674 -0.0860261,-0.66595 -0.057451,-0.219276 -0.13716,-0.428025 -0.239128,-0.626547 -0.101667,-0.198221 -0.22439,-0.386215 -0.367867,-0.563982 -0.143778,-0.177466 -0.301693,-0.334178 -0.474046,-0.469835l0 4.72301c0.172353,-0.12543 0.329065,-0.282141 0.470136,-0.470136 0.14077,-0.187994 0.263492,-0.388922 0.367867,-0.603085 0.104675,-0.214163 0.185588,-0.434642 0.243039,-0.661739 0.057451,-0.227097 0.0860261,-0.447877 0.0860261,-0.661739zm0.838002 -0.0156411c0,0.370574 -0.043013,0.729718 -0.129039,1.07683 -0.0863269,0.347112 -0.21296,0.672267 -0.379898,0.975163 -0.16724,0.302896 -0.375988,0.580826 -0.626547,0.834092 -0.250859,0.253266 -0.540521,0.471339 -0.869585,0.653919l0 1.47267 -0.877105 0 0 -8.78007c0.459307,0.104374 0.868081,0.272817 1.22572,0.505027 0.35764,0.232511 0.659333,0.513149 0.904477,0.842213 0.245445,0.328764 0.432236,0.699639 0.560072,1.11202 0.128137,0.412384 0.191904,0.84853 0.191904,1.30814z"/>
   <polygon id="_52389549612" class="fil2" points="6.5049,7.47194 6.5049,1.51929 7.24123,1.51929 7.24123,6.83757 8.38484,6.83757 8.38484,7.47194 "/>
   <path id="_523895496123" class="fil2" d="M11.6821 7.60519c-0.360347,-0.120316 -0.696029,-0.274321 -1.00645,-0.462315 -0.310717,-0.187994 -0.579623,-0.408474 -0.80672,-0.661739 -0.227398,-0.253266 -0.404864,-0.544431 -0.5327,-0.873195 -0.127836,-0.329065 -0.191904,-0.694525 -0.191904,-1.09668 0,-0.595264 0.146184,-1.12917 0.438553,-1.60171 0.292368,-0.472542 0.689412,-0.862667 1.19053,-1.17098 0.135657,-0.083319 0.27793,-0.154005 0.426822,-0.211456 0.148891,-0.057451 0.298986,-0.106781 0.450283,-0.148591l0 0.665649c-0.240031,0.109789 -0.468632,0.244242 -0.685201,0.40336 -0.216569,0.159118 -0.406067,0.340796 -0.567892,0.544431 -0.161825,0.203635 -0.291165,0.428025 -0.387719,0.67347 -0.0965538,0.245445 -0.144981,0.506531 -0.144981,0.783258 0,0.40727 0.0968545,0.788372 0.289962,1.14361 0.193108,0.354933 0.462014,0.650008 0.80672,0.884926l0 -1.91904 -0.548341 0 0 -0.618726 1.26904 0 0 3.66573z"/>
   <path id="_5238954961234" class="fil2" d="M14.1026 3.97104l-0.360347 1.57404 0.720694 0 -0.360347 -1.57404zm0.791079 3.5009l-0.305603 -1.31596 -0.971253 0 -0.297482 1.31596 -0.705053 0 1.40198 -6.2032c0.00541423,-0.0261688 0.0171451,-0.0481265 0.0354933,-0.0664747 0.0180474,-0.0183482 0.0403059,-0.0273719 0.0664747,-0.0273719 0.0363957,0 0.0586541,0.0102269 0.0664747,0.0312822 0.00782055,0.0207545 0.0171451,0.0442162 0.0273719,0.070385l1.41763 6.19538 -0.736034 0z"/>
   <path id="_52389549612345" class="fil2" d="M24.3628 4.63669c0,-0.0887332 0.00150395,-0.215366 0.00391028,-0.379898 0.00270711,-0.164532 -0.00120316,-0.341999 -0.0117308,-0.5327 -0.0102269,-0.1904 -0.0285751,-0.383809 -0.0547439,-0.579623 -0.0261688,-0.195815 -0.0679787,-0.373281 -0.12543,-0.532399 -0.057451,-0.159419 -0.131746,-0.289962 -0.223187,-0.391629 -0.0911395,-0.101968 -0.204838,-0.152802 -0.340495,-0.152802 -0.141071,0 -0.257176,0.0469233 -0.348616,0.141071 -0.0914403,0.0938466 -0.164532,0.216569 -0.219276,0.368168 -0.0547439,0.151298 -0.0965538,0.31974 -0.12543,0.505027 -0.0285751,0.185287 -0.0469233,0.368168 -0.0547439,0.548341 -0.00782055,0.180174 -0.0117308,0.348616 -0.0117308,0.505027 0,0.156712 0,0.279434 0,0.368168 0,0.0941474 0,0.219276 0,0.375988 0,0.151598 0.00511344,0.317334 0.0156411,0.497508 0.0105277,0.179873 0.0300791,0.36155 0.0586541,0.54413 0.0288759,0.182881 0.0718889,0.348616 0.12934,0.497508 0.057451,0.148591 0.131746,0.27011 0.223187,0.364257 0.0914403,0.0938466 0.204838,0.14077 0.340796,0.14077 0.130543,0 0.240031,-0.0442162 0.328764,-0.132949 0.0887332,-0.089034 0.161825,-0.202432 0.219276,-0.340796 0.057451,-0.138364 0.0992609,-0.293872 0.12543,-0.465924 0.0261688,-0.172353 0.044517,-0.343503 0.0547439,-0.513149 0.0105277,-0.169646 0.0156411,-0.327561 0.0156411,-0.473745 0,-0.151598 0,-0.271614 0,-0.360347zm0.822361 0.0469233c0,0.172353 -0.00511344,0.363054 -0.0156411,0.571803 -0.0102269,0.208749 -0.0336885,0.420204 -0.070385,0.634367 -0.0363957,0.214163 -0.0887332,0.421708 -0.156712,0.622636 -0.0676779,0.201229 -0.160622,0.378695 -0.27793,0.5327 -0.117609,0.154005 -0.261086,0.27793 -0.430732,0.372078 -0.169646,0.0938466 -0.374785,0.14077 -0.614816,0.14077 -0.250859,0 -0.464721,-0.0520368 -0.642489,-0.156411 -0.177466,-0.104675 -0.324854,-0.243039 -0.442463,-0.415091 -0.117308,-0.172353 -0.209952,-0.368168 -0.27793,-0.587444 -0.0679787,-0.219276 -0.118812,-0.44517 -0.152802,-0.677681 -0.0339893,-0.23221 -0.0547439,-0.459307 -0.0625644,-0.681291 -0.00782055,-0.221983 -0.0117308,-0.424415 -0.0117308,-0.606995 0,-0.177466 0.00511344,-0.373281 0.0156411,-0.587444 0.0105277,-0.214163 0.0324854,-0.432236 0.0664747,-0.653919 0.0339893,-0.221983 0.0863269,-0.437349 0.156712,-0.646399 0.070385,-0.208749 0.164532,-0.394036 0.281841,-0.555861 0.117609,-0.161825 0.26259,-0.292368 0.434642,-0.391629 0.172353,-0.0992609 0.381402,-0.148891 0.626847,-0.148891 0.261086,0 0.480362,0.0547439 0.657829,0.164532 0.177466,0.109488 0.325155,0.253266 0.442463,0.430732 0.117609,0.177466 0.207545,0.381102 0.27011,0.610906 0.0628652,0.229804 0.109789,0.464721 0.141071,0.705053 0.0312822,0.240031 0.0496304,0.474948 0.0547439,0.704752 0.00541423,0.229804 0.00782055,0.436146 0.00782055,0.618726z"/>
   <polygon id="_523895496123456" class="fil2" points="26.3757,7.47194 26.3757,1.51929 27.1121,1.51929 27.1121,6.83757 28.2557,6.83757 28.2557,7.47194 "/>
   <polygon id="_5238954961234567" class="fil2" points="29.2735,7.47194 29.2735,1.51929 30.0099,1.51929 30.0099,6.83757 31.2004,6.83757 31.2004,1.51929 31.9364,1.51929 31.9364,7.47194 "/>
   <polygon id="_52389549612345678" class="fil2" points="35.0935,7.47194 35.0935,4.85596 33.9577,3.37577 33.9577,7.47194 33.2214,7.47194 33.2214,1.31566 35.0935,3.74364 35.0935,1.51929 35.8296,1.51929 35.8296,7.47194 "/>
   <polygon id="_523895496123456789" class="fil2" points="37.1139,7.47194 37.1139,1.51929 37.8503,1.51929 37.8503,7.47194 "/>
   <polygon id="_52389549612345678910" class="fil2" points="41.0068,7.47194 41.0068,4.85596 39.871,3.37577 39.871,7.47194 39.1347,7.47194 39.1347,1.31566 41.0068,3.74364 41.0068,1.51929 41.7428,1.51929 41.7428,7.47194 "/>
   <path id="_5238954961234567891011" class="fil2" d="M44.163 3.97104l-0.360347 1.57404 0.720694 0 -0.360347 -1.57404zm0.791079 3.5009l-0.305603 -1.31596 -0.971253 0 -0.297482 1.31596 -0.705053 0 1.40198 -6.2032c0.00541423,-0.0261688 0.0171451,-0.0481265 0.0354933,-0.0664747 0.0180474,-0.0183482 0.0403059,-0.0273719 0.0664747,-0.0273719 0.0363957,0 0.0586541,0.0102269 0.0664747,0.0312822 0.00782055,0.0207545 0.0171451,0.0442162 0.0273719,0.070385l1.41763 6.19538 -0.736034 0z"/>
  </g>
 </g>
</svg>
