<svg xmlns="http://www.w3.org/2000/svg" width="23.04" height="25.599" viewBox="0 0 6.096 6.773"  shape-rendering="geometricPrecision" image-rendering="optimizeQuality" fill-rule="evenodd" xmlns:v="https://vecta.io/nano"><path d="M1.884 4.727V1.34h.847v4.403L1.122 5.32v-.762z" stroke="#d6be00" stroke-width=".085" fill="none"/><path d="M5.291 1.144l-2.032.085.085 2.371.931-.085-.169 1.016-.762.339v.847l1.609-.508.085-2.455h-.931V1.99h1.101z" stroke="#ffde00" stroke-width=".169" fill="#fefefe"/><g stroke-width=".085" fill="none" stroke="#2b2a29"><path d="M5.336 5.991l.58-5.694H.095"/><path d="M.095.296L.677 5.99l2.329.656 2.33-.656m-.235-.364l-2.117.508V.716h2.54z"/></g><g stroke-width=".169"><path d="M3.343 4.869l.762-.339.169-1.016-.931.085-.085-2.371 2.032-.085-.085.847H4.105v.762h.931l-.085 2.455-1.609.508v-.847zM2.985.716v5.419l2.117-.508.423-4.911h-2.54z" stroke="#ffde00" fill="#ffde00"/><path d="M1.884 4.727V1.34h.847v4.403L1.122 5.32v-.762l.762.169zm1.101 1.407V.716h2.54l-.423 4.911-2.117.508zM.095.296l.582 5.694 2.329.656 2.329-.656.58-5.694H.095z" stroke="#d6be00" fill="#d6be00"/></g><path d="M.095.296l.582 5.694 2.329.656 2.33-.656.58-5.694z" stroke="#2b2a29" stroke-width=".254" fill="none"/></svg>