<svg xmlns="http://www.w3.org/2000/svg" width="52.8" height="41.601" viewBox="0 0 13.97 11.007"  shape-rendering="geometricPrecision" image-rendering="optimizeQuality" fill-rule="evenodd" xmlns:v="https://vecta.io/nano"><path d="M3.574 1.169a1.44 1.44 0 0 0-.382.133c-.147.085-.401.292-.646.531l-.133.128-.133.025c-.644.118-1.186.351-1.509.649-.267.246-.447.59-.532 1.01-.043.211-.06.383-.075.751l.002 5.436c.062.335.366.524.839.524.386 0 .668-.128.783-.358.055-.106.062-.165.109-.807l.192-1.928c.096-.376.282-.58.58-.633.121-.021.254-.027.31-.012l.032.009v1.339l.03 1.451a.72.72 0 0 0 .229.386.82.82 0 0 0 .251.186 1.95 1.95 0 0 0 .487.167c.114.024.118.025.234.137.298.285.823.422 1.513.397.419-.016.712-.077.966-.202.304-.149.47-.35.529-.639.019-.094.024-.249.024-.963v-.851l.071.01.173.018.152.015.047.007v.63c0 .689.004.737.087.9.155.307.487.506.982.587.146.025.17.033.236.084.091.072.27.162.413.209.448.146 1.189.159 1.687.03.361-.093.645-.293.761-.541.099-.208.096-.131.096-2.047V6.204l.053-.14c.114-.298.164-.641.149-1.018-.025-.637-.148-1.096-.45-1.686-.003-.006.146-.01.332-.01h.338l.094.093c.171.167.462.321.656.348.18.026.361-.025.451-.127a.25.25 0 0 0 .069-.217l-.004-.087.081-.031c.103-.038.212-.143.235-.223.041-.152-.083-.299-.311-.37-.078-.024-.083-.028-.077-.065.022-.108-.071-.252-.198-.307-.262-.112-.593.004-.903.323l-.1.102H11.3l-.142-.131c-.466-.435-1.108-.73-1.857-.855a4.87 4.87 0 0 0-.774-.071 71.25 71.25 0 0 0-2.301.034l-.199.009-.028-.047c-.046-.08-.23-.264-.338-.341-.324-.227-.751-.267-1.155-.108l-.134.053-.124-.059a1.43 1.43 0 0 0-.212-.084 1.53 1.53 0 0 0-.462-.021h0zm.344.227l.158.043.047.021-.081.04a8.48 8.48 0 0 0-.333.193l-.254.152-.285.024-.329.031c-.044.007-.044.007.022-.053.139-.124.335-.28.42-.33a.84.84 0 0 1 .634-.119zm1.357.052a.89.89 0 0 1 .372.226c.329.313.516.858.58 1.69.065.858-.083 1.436-.439 1.717-.156.122-.298.18-.59.239-.221.046-.344.1-.442.196-.103.102-.155.214-.162.363-.006.106-.003.124.027.159a.09.09 0 0 0 .088.041c.086 0 .118-.041.118-.153.002-.178.094-.292.29-.353.127-.04.226-.058.226-.043 0 .006-.032.176-.072.379-.093.468-.105.435.161.435.258 0 .249.009.31-.302.037-.198.05-.24.08-.267s.056-.032.366-.04c.37-.009.454-.024.631-.111.155-.077.326-.248.41-.41.181-.352.155-.761-.062-.961-.114-.105-.274-.155-.547-.174l-.147-.01-.002-.355c-.002-.646-.091-1.195-.263-1.602l-.049-.115.142-.009c.276-.018 2.003-.043 2.259-.032 1.19.044 2.097.423 2.68 1.121a3.3 3.3 0 0 1 .292.417 1.67 1.67 0 0 1-.158-.152c-.142-.145-.329-.31-.364-.319-.009-.003-.165.195-.348.438l-.332.442.254.009c.295.012.448.04.597.109.189.088.316.24.38.457.038.125.035.386-.006.541-.118.439-.441.755-.866.848a2.9 2.9 0 0 1-.391.032l-.286.009-.041.202c-.044.223-.063.27-.13.327s-.134.071-.364.065-.257-.013-.325-.115c-.041-.061-.043-.117-.006-.296l.037-.193.01-.054-.063.028c-.046.021-.096.029-.178.029h-.115l-.708.947-.727.962c-.01.007-.043.009-.072.003l-.055-.01v-.108c0-.09-.004-.112-.029-.134-.047-.043-.13-.037-.171.013-.034.038-.035.047-.035.322v.28L5.748 9.903l-.041-.159c-.069-.267-.175-.451-.289-.501-.05-.022-.064-.041-.128-.18-.074-.159-.167-.282-.245-.322-.112-.059-.236-.009-.342.137-.053.071-.058.074-.125.072-.119-.002-.231.078-.327.233l-.037.059-.015-2.694-.035-.028c-.071-.058-.193-.01-.193.075v.041l-.172-.059-.342-.1-.172-.049c-.003-.003.024-.027.059-.053.27-.203.482-.705.519-1.233.01-.133.012-.139.049-.152.074-.027.165-.108.223-.198.032-.05.059-.102.059-.117 0-.038-.041-.072-.088-.072-.034 0-.049.01-.068.047-.125.246-.357.288-.56.1-.035-.032-.069-.059-.077-.059-.03 0-.077.049-.077.083 0 .08.179.217.313.239.062.01.063.012.068.075a2.12 2.12 0 0 1-.08.512 2.1 2.1 0 0 1-.118.297c-.1.202-.233.355-.377.432-.087.047-.105.052-.285.06-.336.018-.506.083-.686.264-.161.159-.251.347-.308.63-.031.15-.119 1.084-.192 2.01l-.072.599c-.081.158-.282.242-.578.242s-.492-.081-.58-.243C.393 9.834.393 9.819.383 8.807l.024-4.725C.47 3.57.581 3.246.78 2.985c.357-.468 1.046-.748 2.118-.864.161-.018.17-.016.156.007-.035.068.022.161.099.161.025 0 .133-.06.299-.168.669-.432 1.068-.64 1.329-.696a1.19 1.19 0 0 1 .494.024h0zm8.045 1.134c.022.015.037.041.037.062 0 .034-.004.035-.155.047l-.288.033-.137.016c-.007-.009.131-.105.199-.14.13-.065.27-.072.344-.018h0zm.261.363c.078.024.171.078.173.103s-.094.08-.181.108c-.112.034-.438.034-.658-.003-.196-.031-.405-.083-.405-.097s.189-.065.354-.094c.299-.055.568-.06.718-.016h0zm-.366.462c.201.01.212.012.224.043.009.025.004.043-.024.074-.033.04-.04.041-.173.041s-.14-.002-.277-.069c-.077-.038-.159-.086-.183-.105l-.043-.034.131.019.344.031zM6.639 4.46c.074.022.147.081.171.139.044.106.015.344-.063.501-.083.168-.212.239-.498.271-.258.028-.363.012-.36-.056 0-.013.044-.06.097-.105.176-.146.326-.395.391-.655l.034-.131.088.009a.99.99 0 0 1 .14.027zM3.424 6.706l.344.105.202.068-.001 2.246-.041-.118c-.047-.136-.075-.193-.124-.252-.019-.024-.05-.09-.069-.146-.122-.376-.293-.495-.45-.313l-.052.06v-.844l.027-.843a1.38 1.38 0 0 1 .165.037zm.077 1.625c.044.047.108.17.146.28.022.066.023.078.004.078-.096 0-.209.202-.273.487-.03.136-.037.344-.013.404.016.044.013.046-.041.018-.062-.033-.131-.112-.168-.193-.031-.066-.034-.094-.032-.273a1.14 1.14 0 0 1 .04-.347c.055-.203.121-.363.183-.434s.102-.077.155-.021h0zm4.708.053c.041.041.077.103.109.183l.047.134c0 .007-.021.022-.044.033-.081.034-.167.187-.221.392-.046.178-.062.333-.046.429.009.046.013.085.009.09-.015.016-.112-.063-.155-.125-.117-.177-.118-.438-.006-.816.062-.205.17-.383.231-.383.009 0 .043.028.075.063h0zm1.519.364c.027.015.069.059.096.096.047.066.149.271.149.301 0 .009-.027.043-.057.074-.192.192-.322.754-.226.966a.93.93 0 0 0 .069.121l.037.047-.074.016c-.199.043-.401-.094-.491-.333-.046-.121-.044-.382.004-.58.075-.313.193-.577.304-.678.074-.066.118-.074.189-.03h0zm-6.001.05c.077.077.159.313.187.529a.42.42 0 0 1-.007.217c-.032.106-.072.171-.131.207-.111.068-.226.019-.299-.124-.037-.075-.044-.103-.043-.199 0-.202.097-.53.183-.621.05-.053.065-.055.111-.009h0zm1.265.01c.085.044.178.174.246.341l.034.084-.059.059c-.071.072-.136.19-.187.348-.043.125-.083.332-.083.419a.62.62 0 0 0 .09.295c.058.083.043.097-.087.097a.4.4 0 0 1-.304-.14c-.189-.209-.203-.538-.046-1.013.085-.257.18-.417.28-.478.052-.033.071-.034.115-.012h0zm3.444.032c.084.09.181.412.183.611a.34.34 0 0 1-.041.207c-.102.205-.293.205-.395 0a.34.34 0 0 1-.041-.207c.002-.199.099-.521.183-.611.04-.043.072-.043.112 0h0zm.866.139a3.49 3.49 0 0 0-.153.487c-.06.297-.055.469.021.634.031.069.033.078.01.078-.047 0-.172-.071-.227-.127-.125-.131-.149-.298-.078-.544.091-.317.261-.553.397-.553.034 0 .04.004.031.025h0zm-4.697.055a2.92 2.92 0 0 1-.053.145 2.49 2.49 0 0 0-.14.56.85.85 0 0 0 .052.442l.035.087-.032-.009a.54.54 0 0 1-.236-.145c-.077-.094-.102-.164-.1-.29.002-.265.201-.693.36-.771.044-.022.115-.034.115-.019h0zm5.519.23a.59.59 0 0 1 .097.145c.124.237.183.562.13.721a.44.44 0 0 1-.17.217c-.149.077-.305.013-.397-.159-.035-.068-.04-.09-.038-.223 0-.183.041-.345.131-.534s.161-.235.246-.167h0zm-4.693.09c.115.117.236.473.236.699 0 .274-.214.472-.417.385a.42.42 0 0 1-.196-.239 1.17 1.17 0 0 1 .212-.836c.065-.066.105-.069.165-.009zM1.787 3.076c-.221.047-.361.118-.49.246-.075.074-.085.091-.085.142 0 .075.05.125.125.125.046 0 .068-.015.168-.111a.96.96 0 0 1 .649-.271c.091-.006.153-.002.22.016.118.03.14.03.18-.003.096-.077-.111-.149-.457-.158-.146-.005-.243 0-.31.013h0z"/><path d="M7.848 3.495c-.028.024-.056.147-.237 1.078l-.205 1.091c0 .068.021.075.223.075.174 0 .192-.003.226-.034s.047-.083.149-.615l.145-.617c.03-.031.041-.032.259-.032.354 0 .394.021.391.198a5.94 5.94 0 0 1-.094.574c-.114.574-.127.526.149.526.175 0 .192-.003.226-.034s.047-.083.142-.569l.103-.614c0-.198-.096-.339-.262-.391-.127-.04-.314-.059-.572-.059-.18 0-.214-.004-.242-.027l-.034-.028.047-.242.046-.252c0-.006-.01-.021-.024-.033-.035-.037-.388-.034-.434.003h0zm-5.619.24c-.147.038-.372.149-.441.218a.44.44 0 0 0-.131.301c-.009.133.013.2.113.348.066.102.097.133.164.17.074.041.093.046.206.046a.48.48 0 0 0 .367-.147c.103-.097.149-.193.149-.316 0-.117-.034-.198-.106-.261-.086-.075-.168-.099-.314-.091l-.121.003c.002-.001.065-.044.14-.094.128-.086.204-.165.186-.195-.012-.019-.094-.012-.212.019zm.176.376c.102.052.149.122.159.24.01.103-.002.117-.025.031-.032-.12-.168-.22-.273-.201-.053.01-.118.055-.14.099-.013.024-.006.032.062.066l.077.038-.038.034-.072.058-.033.022.04.053c.05.065.116.1.196.102.074.002.069.013-.028.062-.317.161-.63-.103-.478-.403.103-.205.358-.298.553-.202z"/><path d="M9.724 4.107c-.03.031-.06.174-.239 1.091l-.207 1.078c0 .056.04.068.236.068.252 0 .242.009.296-.274.05-.258.062-.292.111-.314.022-.01.133-.016.288-.016.494 0 .681-.061.916-.295.105-.105.14-.15.187-.252.086-.177.111-.286.109-.47 0-.174-.028-.274-.108-.391s-.177-.171-.383-.223c-.094-.022-.192-.027-.642-.032l-.531-.006-.034.037zm.919.336c.119.021.196.066.235.139.069.131.013.448-.105.603-.066.087-.149.133-.293.162a1.97 1.97 0 0 1-.453.032c-.074-.018-.074-.037.012-.475.099-.509.077-.478.335-.478.099 0 .22.007.27.016h0z"/><path d="M10.267 4.594c0 .003-.027.137-.059.298l-.059.314c0 .016.019.019.108.01.31-.029.395-.08.454-.271.038-.131.046-.27.013-.302s-.158-.053-.319-.053l-.139.005z"/><g stroke="#2b2a29" fill="#788bc7"><path d="M2.897 2.121c-1.072.116-1.761.397-2.118.864-.199.261-.31.585-.373 1.097C.361 4.454.353 5.94.383 8.807l.043 1.084c.087.162.279.243.58.243s.497-.084.578-.242c.026-.053.037-.131.072-.599l.192-2.01c.058-.283.148-.471.308-.63.18-.181.349-.246.686-.264.18-.009.198-.013.285-.06.144-.077.277-.23.377-.432.044-.091.099-.224.118-.296.046-.158.087-.423.08-.512-.004-.063-.006-.065-.068-.075-.134-.022-.313-.159-.313-.239 0-.034.047-.082.077-.082.007 0 .041.027.077.059.204.187.435.146.561-.1.019-.037.034-.047.068-.047.047 0 .088.034.088.072a.41.41 0 0 1-.059.117c-.057.09-.149.171-.223.198-.037.013-.038.019-.049.152-.037.528-.249 1.029-.519 1.233-.035.027-.062.05-.059.053s.081.025.173.049l.342.1.173.059v-.041c0-.086.122-.133.193-.075l.035.028.015 2.695.037-.059c.096-.155.208-.234.327-.233.068.002.072-.001.125-.072.106-.146.23-.196.342-.137.078.04.171.162.245.322.065.139.078.158.128.18.113.05.22.234.289.501l.041.159.644-.863.645-.864v-.28c0-.274.001-.283.035-.322.041-.05.124-.056.171-.013.025.022.029.044.029.134v.108l.055.01c.029.006.062.004.072-.003a44.39 44.39 0 0 0 .727-.961l.708-.947h.115a.41.41 0 0 0 .178-.029l.063-.028-.01.054-.037.193c-.037.18-.035.236.006.297.068.102.093.111.325.115s.293-.006.364-.065.085-.105.13-.328l.041-.202.286-.009.391-.032c.425-.093.748-.409.866-.848.041-.155.044-.416.006-.541-.065-.217-.192-.369-.381-.457-.149-.069-.302-.097-.597-.109l-.254-.009.332-.442.348-.438c.035.009.223.174.364.318l.158.152c.009-.009-.199-.307-.292-.417-.582-.697-1.489-1.077-2.68-1.121-.257-.01-1.984.015-2.259.032l-.142.009.049.115c.171.407.261.956.262 1.602l.002.355.147.011c.273.019.434.069.547.174.217.201.243.609.062.962-.084.162-.255.333-.41.41-.177.087-.261.102-.631.111-.31.007-.332.01-.366.04s-.043.069-.08.267c-.061.311-.052.302-.31.302-.266 0-.254.032-.161-.435l.072-.379c0-.015-.099.003-.226.043-.196.061-.289.174-.291.353 0 .112-.032.153-.118.153-.044 0-.063-.009-.088-.041s-.032-.053-.027-.159c.007-.149.059-.261.162-.363.099-.096.221-.15.443-.196.292-.059.433-.117.59-.239.357-.28.504-.858.439-1.717-.063-.832-.251-1.377-.58-1.69a.89.89 0 0 0-.372-.226c-.131-.041-.36-.052-.494-.024-.261.056-.659.264-1.329.696-.167.107-.274.168-.299.168-.077 0-.134-.093-.099-.161.013-.024.004-.025-.156-.007zm-.801.942c.347.009.553.081.457.158-.04.032-.062.032-.18.003-.066-.018-.128-.022-.22-.016-.27.018-.471.1-.649.271-.1.096-.122.111-.168.111-.075 0-.125-.05-.125-.125 0-.05.01-.068.085-.142.128-.128.268-.199.49-.246a1.47 1.47 0 0 1 .31-.013zm5.514 1.51l.237-1.078c.046-.037.398-.04.433-.003.013.012.024.026.024.033s-.021.119-.046.252l-.047.242.034.028c.028.022.062.027.242.027.258 0 .445.019.572.059.167.052.262.193.262.391 0 .043-.047.319-.103.614-.094.487-.108.54-.141.569s-.05.034-.226.034c-.276 0-.262.047-.149-.527l.094-.574c.003-.177-.037-.198-.391-.198-.218 0-.23.001-.259.032s-.053.143-.145.617l-.149.615c-.034.031-.052.034-.226.034-.202 0-.223-.008-.223-.075a49.86 49.86 0 0 1 .205-1.091zm1.874.625l.239-1.091.034-.037.531.006.641.032c.207.052.305.108.383.223a.61.61 0 0 1 .108.391c.002.184-.023.293-.109.47-.047.102-.083.147-.187.252-.235.234-.422.295-.916.295-.155 0-.265.006-.288.016-.049.022-.06.056-.111.314-.055.283-.044.274-.296.274-.196 0-.236-.012-.236-.068 0-.012.093-.497.207-1.078zM2.229 3.735c.118-.031.201-.038.212-.019.018.03-.058.109-.186.195l-.14.094c-.003.002.053 0 .121-.003.146-.007.229.016.314.091a.32.32 0 0 1 .106.261c0 .122-.046.218-.149.315a.48.48 0 0 1-.367.148c-.114 0-.133-.005-.206-.046-.066-.037-.097-.068-.164-.17-.1-.147-.123-.215-.114-.348.006-.119.05-.22.131-.301.069-.069.293-.18.441-.218z" stroke-width=".085"/><g stroke-width=".169"><path d="M8.835 5.902l-.708.947-.727.962c-.01.007-.043.009-.072.003l-.055-.01v-.108c0-.09-.004-.112-.029-.134-.047-.043-.13-.037-.171.013-.034.038-.035.047-.035.322v.28L5.748 9.903l-.041-.159c-.069-.267-.176-.451-.289-.501-.05-.022-.063-.041-.128-.18-.074-.159-.167-.282-.245-.322-.112-.059-.236-.009-.342.137-.053.071-.058.074-.125.072-.119-.001-.232.078-.327.233l-.037.059-.015-2.694-.035-.028c-.071-.058-.193-.01-.193.075v.041l-.173-.059-.342-.1-.173-.049c-.003-.003.024-.027.059-.053.27-.203.482-.705.519-1.233.01-.133.012-.139.049-.152.074-.027.165-.108.223-.198a.41.41 0 0 0 .059-.117c0-.038-.041-.072-.088-.072-.034 0-.048.01-.068.047-.126.246-.357.288-.561.1-.035-.032-.069-.059-.077-.059-.029 0-.077.048-.077.082 0 .08.179.217.313.239.062.01.063.012.068.075.007.088-.034.354-.08.512-.019.072-.074.205-.118.297-.1.202-.233.355-.377.432-.087.047-.105.052-.285.06-.336.018-.506.083-.686.264-.161.159-.251.347-.308.63-.031.15-.119 1.084-.192 2.01l-.072.599c-.081.158-.282.242-.578.242s-.492-.081-.58-.243C.393 9.834.393 9.819.383 8.807l.024-4.725C.47 3.57.581 3.246.78 2.985c.357-.468 1.046-.748 2.118-.864.161-.018.17-.016.156.007-.035.068.022.161.099.161.025 0 .133-.061.299-.168.67-.432 1.068-.64 1.329-.696.134-.028.363-.018.494.024a.89.89 0 0 1 .372.226c.329.313.516.858.58 1.69.065.858-.082 1.437-.439 1.717-.156.122-.298.18-.59.239-.221.046-.344.1-.443.196-.103.102-.155.214-.162.363-.006.106-.003.124.027.159s.044.041.088.041c.086 0 .118-.041.118-.153.002-.178.095-.292.291-.353.127-.04.226-.058.226-.043 0 .006-.032.175-.072.379-.093.467-.105.435.161.435.258 0 .249.009.31-.302.037-.198.05-.24.08-.267s.056-.032.366-.04c.37-.009.454-.024.631-.111.155-.077.326-.248.41-.41.181-.352.155-.761-.062-.962-.114-.104-.274-.155-.547-.174l-.147-.011-.002-.355c-.002-.646-.091-1.195-.262-1.602l-.049-.115.142-.009c.276-.018 2.003-.043 2.259-.032 1.19.044 2.097.423 2.68 1.121.093.111.301.409.292.417-.003.003-.074-.066-.158-.152-.142-.144-.329-.31-.364-.318-.009-.003-.165.195-.348.438l-.332.442.254.009c.295.012.448.04.597.109.189.089.316.24.381.457.038.125.035.386-.006.541-.118.439-.441.755-.866.848-.06.013-.221.027-.391.032l-.286.009-.041.202c-.044.223-.063.27-.13.328s-.134.071-.364.065-.257-.013-.325-.115c-.041-.061-.043-.117-.006-.296l.047-.248-.063.028a.41.41 0 0 1-.178.029h-.115zM6.81 4.598c.044.106.015.343-.063.501-.083.168-.212.239-.498.271-.258.028-.363.012-.36-.056 0-.013.044-.06.097-.105.176-.146.326-.395.391-.655l.034-.131.088.009c.049.006.112.018.14.027.074.022.147.081.171.139zM4.042 1.5c-.044.022-.193.109-.333.193l-.254.152-.285.024-.329.031c-.044.007-.044.007.022-.053a3.74 3.74 0 0 1 .42-.33.84.84 0 0 1 .634-.119l.158.043.047.021-.081.04zm-.468-.33a1.45 1.45 0 0 0-.382.133c-.147.085-.401.292-.646.531l-.133.128-.133.025c-.644.118-1.186.351-1.509.649-.267.246-.447.59-.532 1.01-.043.211-.06.384-.075.751l.001 5.436c.062.335.366.524.839.524.386 0 .668-.128.783-.358.054-.106.062-.165.109-.807l.192-1.928c.096-.376.282-.58.58-.633.121-.021.254-.027.31-.012l.032.009v1.339l.03 1.451c.041.162.093.251.228.386.091.093.148.133.251.186.145.074.305.128.487.167.114.024.118.025.234.137.298.285.823.422 1.513.397.419-.016.712-.077.966-.202.304-.149.471-.35.529-.639.019-.094.024-.249.024-.963v-.851l.071.011.173.018.152.015.047.007v.63c0 .689.005.738.087.899.155.307.487.506.982.587.146.025.17.033.236.084.091.072.27.162.413.209.448.146 1.189.159 1.687.03.361-.093.645-.293.761-.541.099-.208.096-.131.096-2.047V6.204l.053-.14c.114-.298.164-.642.149-1.018-.025-.637-.147-1.096-.45-1.686-.003-.006.146-.01.332-.01h.338l.094.093c.171.167.462.322.656.348.18.026.361-.025.451-.127a.25.25 0 0 0 .069-.217l-.005-.087.081-.031c.103-.038.212-.143.235-.223.041-.152-.083-.3-.311-.37-.078-.024-.083-.028-.077-.065.022-.108-.071-.252-.198-.307-.262-.112-.593.004-.902.323l-.1.102h-1.094l-.141-.131c-.466-.435-1.108-.73-1.857-.856a4.88 4.88 0 0 0-.774-.071 72.15 72.15 0 0 0-2.301.034l-.199.009-.028-.047a1.67 1.67 0 0 0-.338-.341c-.325-.227-.751-.267-1.155-.108l-.134.053-.124-.059c-.068-.034-.164-.071-.212-.084-.109-.028-.357-.04-.462-.021zm9.34 1.984c-.196-.031-.406-.083-.406-.097s.189-.065.354-.094c.299-.054.568-.06.718-.016.078.023.171.078.173.103s-.094.08-.181.108c-.112.034-.438.034-.658-.003zm.288-.461l-.288.032-.137.016c-.007-.009.131-.105.199-.14.13-.065.27-.072.344-.018.022.015.037.041.037.062 0 .034-.004.035-.155.047zm.041.873c-.134 0-.14-.002-.277-.069-.077-.038-.159-.086-.183-.105l-.043-.034.131.019a4.7 4.7 0 0 0 .344.031c.201.01.213.012.224.043.009.025.004.043-.024.074-.033.04-.04.041-.172.041zM3.424 6.706l.344.105.202.068-.001 2.246-.041-.118c-.047-.136-.075-.193-.124-.252-.019-.024-.05-.09-.069-.146-.122-.376-.293-.495-.45-.313l-.051.06v-.844l.026-.843c.013 0 .088.016.165.037zm.223 1.905c.022.066.024.078.005.078-.096 0-.209.202-.273.487-.03.136-.037.344-.013.404.016.044.013.046-.041.018-.062-.033-.131-.112-.168-.193-.031-.066-.034-.094-.033-.273.002-.165.007-.224.04-.347.054-.203.121-.363.183-.433s.102-.077.155-.021c.044.047.108.17.146.28zm4.562-.227c.041.041.077.103.109.183l.047.134c0 .007-.021.022-.044.032-.081.034-.167.187-.221.392-.046.178-.062.333-.046.429.009.046.013.086.009.09-.015.016-.112-.063-.155-.125-.117-.177-.118-.438-.006-.816.062-.205.17-.384.231-.384.009 0 .043.028.075.063zm1.519.364c.027.015.069.059.096.096.047.066.149.271.149.301 0 .009-.026.043-.057.074-.192.192-.321.754-.226.966a.91.91 0 0 0 .069.121l.037.047-.074.016c-.199.043-.401-.094-.491-.333-.046-.121-.044-.382.004-.58.075-.313.193-.577.304-.678.074-.066.118-.074.189-.029zm-4.735.06c.086.044.178.174.246.341l.034.084-.059.059c-.071.072-.136.19-.187.348-.043.125-.082.332-.082.419s.041.226.09.295c.058.083.043.097-.087.097a.4.4 0 0 1-.304-.14c-.189-.209-.204-.538-.046-1.013.086-.257.18-.417.28-.478.052-.033.071-.034.115-.012zm-.388.226h0zm-.053.145c-.068.178-.118.38-.14.56-.021.167-.005.302.052.442l.035.087-.032-.009a.54.54 0 0 1-.236-.145c-.077-.094-.102-.164-.1-.29.001-.265.201-.693.36-.771.044-.022.115-.034.115-.019 0 .003-.024.068-.053.145zm-.637.149c.015.117.013.148-.007.217-.032.106-.072.171-.131.206-.111.068-.226.019-.299-.124-.037-.075-.044-.103-.043-.199 0-.202.097-.529.183-.621.05-.053.065-.055.111-.009.077.077.159.313.187.529zm4.522-.487c.084.09.181.412.183.611.002.106-.005.133-.041.207-.102.205-.293.205-.395 0-.037-.074-.043-.1-.041-.207.002-.199.099-.521.183-.611.04-.043.072-.043.112 0zm.438.666c.091-.317.261-.553.397-.553.034 0 .04.004.031.025-.059.146-.13.37-.153.487-.06.296-.055.469.021.634.031.069.032.078.01.078-.047 0-.172-.071-.227-.127-.125-.131-.149-.298-.078-.544zm1.249-.243c.021.016.065.081.097.145.124.237.183.562.13.721-.027.081-.108.186-.17.217-.149.077-.305.013-.397-.159-.035-.068-.04-.09-.038-.223 0-.183.041-.345.131-.534s.161-.234.246-.167zm-4.693.09c.115.117.236.473.236.699 0 .274-.214.472-.417.385-.077-.032-.168-.143-.196-.239-.061-.211.058-.677.212-.836.065-.066.105-.069.165-.009z"/><path d="M8.704 5.213c-.114.574-.127.526.149.526.175 0 .192-.003.226-.034s.047-.083.141-.569l.103-.614c0-.198-.096-.339-.262-.391-.127-.04-.314-.059-.572-.059-.18 0-.214-.004-.242-.027l-.034-.028.047-.242.046-.252c0-.006-.01-.021-.024-.033-.035-.037-.388-.034-.434.003-.028.024-.056.147-.237 1.078l-.205 1.091c0 .068.021.075.223.075.174 0 .192-.003.226-.034s.047-.083.149-.615l.145-.617c.03-.031.041-.032.259-.032.354 0 .394.021.391.198a5.94 5.94 0 0 1-.094.574zm2.173-.631c.07.131.013.448-.105.603-.066.087-.149.133-.293.162-.127.027-.4.046-.453.032-.074-.018-.074-.037.012-.475.099-.509.077-.478.335-.478.099 0 .22.007.27.016.119.021.196.066.234.139zm-1.392.617l-.207 1.078c0 .056.04.068.236.068.252 0 .242.009.296-.274.05-.258.062-.292.111-.314.022-.01.133-.016.288-.016.494 0 .681-.061.916-.295.105-.105.14-.151.187-.252.086-.177.111-.286.109-.47a.61.61 0 0 0-.108-.391c-.078-.115-.177-.171-.383-.223-.094-.022-.192-.027-.641-.032l-.531-.006-.034.037c-.029.031-.06.174-.239 1.091zM3.97 8.001V6.878l-.202-.068-.344-.105-.165-.037c-.025 0-.026.05-.026.843v.844l.051-.06c.156-.183.328-.063.45.313.019.056.05.122.069.146.049.059.077.117.124.252l.041.118L3.969 8zm1.918-2.686c-.003.068.102.084.36.056.286-.032.416-.103.498-.271.078-.158.108-.395.063-.501-.024-.058-.097-.117-.171-.139a.97.97 0 0 0-.14-.027l-.088-.009-.034.131c-.065.26-.215.509-.391.655-.053.044-.097.091-.097.105z"/><path d="M10.208 4.892l-.059.314c0 .016.019.019.107.01.31-.029.395-.08.454-.271.038-.131.046-.27.013-.302s-.158-.053-.319-.053l-.139.004-.059.298z"/></g></g></svg>